<?xml version="1.0" encoding="UTF-8" standalone="no"?>
<svg
   viewBox="0 0 512 512"
   version="1.1"
   id="svg957"
   sodipodi:docname="replay.svg"
   inkscape:version="1.1.2 (1:1.1+202202050852+0a00cf5339)"
   xmlns:inkscape="http://www.inkscape.org/namespaces/inkscape"
   xmlns:sodipodi="http://sodipodi.sourceforge.net/DTD/sodipodi-0.dtd"
   xmlns="http://www.w3.org/2000/svg"
   xmlns:svg="http://www.w3.org/2000/svg">
  <defs
     id="defs961" />
  <sodipodi:namedview
     id="namedview959"
     pagecolor="#505050"
     bordercolor="#eeeeee"
     borderopacity="1"
     inkscape:pageshadow="0"
     inkscape:pageopacity="0"
     inkscape:pagecheckerboard="0"
     showgrid="false"
     inkscape:zoom="1.2851562"
     inkscape:cx="255.61094"
     inkscape:cy="255.61094"
     inkscape:window-width="2560"
     inkscape:window-height="1379"
     inkscape:window-x="0"
     inkscape:window-y="30"
     inkscape:window-maximized="1"
     inkscape:current-layer="svg957" />
  <!--! Font Awesome Pro 6.3.0 by @fontawesome - https://fontawesome.com License - https://fontawesome.com/license (Commercial License) Copyright 2023 Fonticons, Inc. -->
  <path
     d="M32.5 224H24c-13.3 0-24-10.7-24-24V72c0-9.7 5.8-18.5 14.8-22.2s19.3-1.7 26.2 5.2L82.6 96.6c87.6-86.5 228.7-86.2 315.8 1c87.5 87.5 87.5 229.3 0 316.8s-229.3 87.5-316.8 0c-12.5-12.5-12.5-32.8 0-45.3s32.8-12.5 45.3 0c62.5 62.5 163.8 62.5 226.3 0s62.5-163.8 0-226.3c-62.2-62.2-162.7-62.5-225.3-1L169 183c6.9 6.9 8.9 17.2 5.2 26.2s-12.5 14.8-22.2 14.8H32.5z"
     id="path955"
     style="fill:#ffd60a;fill-opacity:1" />
</svg>
